<svg id="visual" viewBox="0 0 900 300" width="900" height="300" xmlns="http://www.w3.org/2000/svg" xmlns:xlink="http://www.w3.org/1999/xlink" version="1.1"><rect x="0" y="0" width="900" height="300" fill="#302C34"></rect><path d="M0 210L21.5 200.8C43 191.7 86 173.3 128.8 175.8C171.7 178.3 214.3 201.7 257.2 201C300 200.3 343 175.7 385.8 162.2C428.7 148.7 471.3 146.3 514.2 158C557 169.7 600 195.3 642.8 205.5C685.7 215.7 728.3 210.3 771.2 200.7C814 191 857 177 878.5 170L900 163L900 0L878.5 0C857 0 814 0 771.2 0C728.3 0 685.7 0 642.8 0C600 0 557 0 514.2 0C471.3 0 428.7 0 385.8 0C343 0 300 0 257.2 0C214.3 0 171.7 0 128.8 0C86 0 43 0 21.5 0L0 0Z" fill="#ff7f27"></path><path d="M0 169L21.5 163.3C43 157.7 86 146.3 128.8 150.8C171.7 155.3 214.3 175.7 257.2 174.3C300 173 343 150 385.8 149.8C428.7 149.7 471.3 172.3 514.2 173.3C557 174.3 600 153.7 642.8 152.5C685.7 151.3 728.3 169.7 771.2 175.7C814 181.7 857 175.3 878.5 172.2L900 169L900 0L878.5 0C857 0 814 0 771.2 0C728.3 0 685.7 0 642.8 0C600 0 557 0 514.2 0C471.3 0 428.7 0 385.8 0C343 0 300 0 257.2 0C214.3 0 171.7 0 128.8 0C86 0 43 0 21.5 0L0 0Z" fill="#d8721a"></path><path d="M0 124L21.5 129.5C43 135 86 146 128.8 148.7C171.7 151.3 214.3 145.7 257.2 144.7C300 143.7 343 147.3 385.8 143.8C428.7 140.3 471.3 129.7 514.2 127.7C557 125.7 600 132.3 642.8 134.8C685.7 137.3 728.3 135.7 771.2 133.8C814 132 857 130 878.5 129L900 128L900 0L878.5 0C857 0 814 0 771.2 0C728.3 0 685.7 0 642.8 0C600 0 557 0 514.2 0C471.3 0 428.7 0 385.8 0C343 0 300 0 257.2 0C214.3 0 171.7 0 128.8 0C86 0 43 0 21.5 0L0 0Z" fill="#b3640f"></path><path d="M0 120L21.5 116.3C43 112.7 86 105.3 128.8 104.5C171.7 103.7 214.3 109.3 257.2 108.7C300 108 343 101 385.8 98.8C428.7 96.7 471.3 99.3 514.2 105.5C557 111.7 600 121.3 642.8 122.5C685.7 123.7 728.3 116.3 771.2 114C814 111.7 857 114.3 878.5 115.7L900 117L900 0L878.5 0C857 0 814 0 771.2 0C728.3 0 685.7 0 642.8 0C600 0 557 0 514.2 0C471.3 0 428.7 0 385.8 0C343 0 300 0 257.2 0C214.3 0 171.7 0 128.8 0C86 0 43 0 21.5 0L0 0Z" fill="#915608"></path><path d="M0 71L21.5 71.3C43 71.7 86 72.3 128.8 75.7C171.7 79 214.3 85 257.2 84C300 83 343 75 385.8 70.5C428.7 66 471.3 65 514.2 67.7C557 70.3 600 76.7 642.8 80.3C685.7 84 728.3 85 771.2 83.8C814 82.7 857 79.3 878.5 77.7L900 76L900 0L878.5 0C857 0 814 0 771.2 0C728.3 0 685.7 0 642.8 0C600 0 557 0 514.2 0C471.3 0 428.7 0 385.8 0C343 0 300 0 257.2 0C214.3 0 171.7 0 128.8 0C86 0 43 0 21.5 0L0 0Z" fill="#714705"></path><path d="M0 61L21.5 60.3C43 59.7 86 58.3 128.8 59.5C171.7 60.7 214.3 64.3 257.2 65.7C300 67 343 66 385.8 65.7C428.7 65.3 471.3 65.7 514.2 67.3C557 69 600 72 642.8 71.5C685.7 71 728.3 67 771.2 66.5C814 66 857 69 878.5 70.5L900 72L900 0L878.5 0C857 0 814 0 771.2 0C728.3 0 685.7 0 642.8 0C600 0 557 0 514.2 0C471.3 0 428.7 0 385.8 0C343 0 300 0 257.2 0C214.3 0 171.7 0 128.8 0C86 0 43 0 21.5 0L0 0Z" fill="#553804"></path><path d="M0 45L21.5 41.2C43 37.3 86 29.7 128.8 26.5C171.7 23.3 214.3 24.7 257.2 26.7C300 28.7 343 31.3 385.8 29.8C428.7 28.3 471.3 22.7 514.2 24.7C557 26.7 600 36.3 642.8 37.5C685.7 38.7 728.3 31.3 771.2 27.2C814 23 857 22 878.5 21.5L900 21L900 0L878.5 0C857 0 814 0 771.2 0C728.3 0 685.7 0 642.8 0C600 0 557 0 514.2 0C471.3 0 428.7 0 385.8 0C343 0 300 0 257.2 0C214.3 0 171.7 0 128.8 0C86 0 43 0 21.5 0L0 0Z" fill="#3b2900"></path></svg>