<svg id="visual" viewBox="0 0 900 300" width="900" height="300" xmlns="http://www.w3.org/2000/svg" xmlns:xlink="http://www.w3.org/1999/xlink" version="1.1"><rect x="0" y="0" width="900" height="300" fill="#302C34"></rect><path d="M0 144L113 144L113 155L225 155L225 188L338 188L338 166L450 166L450 157L563 157L563 161L675 161L675 179L788 179L788 189L900 189L900 155L900 0L900 0L788 0L788 0L675 0L675 0L563 0L563 0L450 0L450 0L338 0L338 0L225 0L225 0L113 0L113 0L0 0Z" fill="#ff7f27"></path><path d="M0 175L113 175L113 142L225 142L225 158L338 158L338 147L450 147L450 132L563 132L563 142L675 142L675 129L788 129L788 159L900 159L900 128L900 0L900 0L788 0L788 0L675 0L675 0L563 0L563 0L450 0L450 0L338 0L338 0L225 0L225 0L113 0L113 0L0 0Z" fill="#e1651b"></path><path d="M0 133L113 133L113 138L225 138L225 109L338 109L338 111L450 111L450 119L563 119L563 101L675 101L675 139L788 139L788 121L900 121L900 109L900 0L900 0L788 0L788 0L675 0L675 0L563 0L563 0L450 0L450 0L338 0L338 0L225 0L225 0L113 0L113 0L0 0Z" fill="#c24c10"></path><path d="M0 111L113 111L113 124L225 124L225 112L338 112L338 122L450 122L450 107L563 107L563 103L675 103L675 123L788 123L788 126L900 126L900 130L900 0L900 0L788 0L788 0L675 0L675 0L563 0L563 0L450 0L450 0L338 0L338 0L225 0L225 0L113 0L113 0L0 0Z" fill="#a43404"></path><path d="M0 85L113 85L113 66L225 66L225 63L338 63L338 101L450 101L450 93L563 93L563 84L675 84L675 86L788 86L788 65L900 65L900 86L900 0L900 0L788 0L788 0L675 0L675 0L563 0L563 0L450 0L450 0L338 0L338 0L225 0L225 0L113 0L113 0L0 0Z" fill="#871900"></path><path d="M0 49L113 49L113 74L225 74L225 82L338 82L338 57L450 57L450 42L563 42L563 79L675 79L675 84L788 84L788 56L900 56L900 85L900 0L900 0L788 0L788 0L675 0L675 0L563 0L563 0L450 0L450 0L338 0L338 0L225 0L225 0L113 0L113 0L0 0Z" fill="#6b0000"></path><path d="M0 38L113 38L113 34L225 34L225 41L338 41L338 49L450 49L450 58L563 58L563 39L675 39L675 50L788 50L788 50L900 50L900 43L900 0L900 0L788 0L788 0L675 0L675 0L563 0L563 0L450 0L450 0L338 0L338 0L225 0L225 0L113 0L113 0L0 0Z" fill="#520000"></path><path d="M0 38L113 38L113 7L225 7L225 34L338 34L338 16L450 16L450 31L563 31L563 30L675 30L675 26L788 26L788 37L900 37L900 19L900 0L900 0L788 0L788 0L675 0L675 0L563 0L563 0L450 0L450 0L338 0L338 0L225 0L225 0L113 0L113 0L0 0Z" fill="#000000"></path></svg>